<?xml version="1.0" encoding="utf-8"?>
<svg version="1.1" xmlns:xlink="http://www.w3.org/1999/xlink" width="310px" height="44px" xmlns="http://www.w3.org/2000/svg">
  <g transform="matrix(1 0 0 1 -647 -327 )">
    <path d="M 647.5 360.186621955898  C 647.5 360.186621955898  647.5 332  647.5 332  C 647.5 329.514718625761  649.514718625761 327.5  652 327.5  C 652 327.5  952 327.5  952 327.5  C 954.485281374239 327.5  956.5 329.514718625761  956.5 332  C 956.5 332  956.5 360.186621955898  956.5 360.186621955898  C 956.5 362.671903330137  954.485281374239 364.686621955898  952 364.686621955898  C 952 364.686621955898  690.999908555589 364.686621955898  690.999908555589 364.686621955898  C 690.999908555589 364.686621955898  681.136592578199 370.255603390935  681.136592578199 370.255603390935  C 681.136592578199 370.255603390935  671.2625938849 364.686621955898  671.2625938849 364.686621955898  C 671.2625938849 364.686621955898  652 364.686621955898  652 364.686621955898  C 649.514718625761 364.686621955898  647.5 362.671903330137  647.5 360.186621955898  Z " fill-rule="nonzero" fill="#ffffff" stroke="none" />
    <path d="M 647 360.186621955898  C 647 360.186621955898  647 332  647 332  C 647 329.238576250846  649.238576250846 327  652 327  C 652 327  952 327  952 327  C 954.761423749154 327  957 329.238576250846  957 332  C 957 332  957 360.186621955898  957 360.186621955898  C 957 362.948045705052  954.761423749154 365.186621955898  952 365.186621955898  C 952 365.186621955898  691.131313131313 365.186621955898  691.131313131313 365.186621955898  C 691.131313131313 365.186621955898  681.136725577782 370.829721362229  681.136725577782 370.829721362229  C 681.136725577782 370.829721362229  671.131313131313 365.186621955898  671.131313131313 365.186621955898  C 671.131313131313 365.186621955898  652 365.186621955898  652 365.186621955898  C 649.238576250846 365.186621955898  647 362.948045705052  647 360.186621955898  Z M 648 360.186621955898  C 648 362.395760955221  649.790861000677 364.186621955898  652 364.186621955898  C 652 364.186621955898  671.393874638487 364.186621955898  671.393874638487 364.186621955898  C 671.393874638487 364.186621955898  681.136459578617 369.68148541964  681.136459578617 369.68148541964  C 681.136459578617 369.68148541964  690.868503979865 364.186621955898  690.868503979865 364.186621955898  C 690.868503979865 364.186621955898  952 364.186621955898  952 364.186621955898  C 954.209138999323 364.186621955898  956 362.395760955221  956 360.186621955898  C 956 360.186621955898  956 332  956 332  C 956 329.790861000677  954.209138999323 328  952 328  C 952 328  652 328  652 328  C 649.790861000677 328  648 329.790861000677  648 332  C 648 332  648 360.186621955898  648 360.186621955898  Z " fill-rule="nonzero" fill="#333333" stroke="none" />
  </g>
</svg>