<?xml version="1.0" encoding="utf-8"?>
<svg version="1.1" xmlns:xlink="http://www.w3.org/1999/xlink" width="14px" height="14px" viewBox="7 92  14 14" xmlns="http://www.w3.org/2000/svg">
  <path d="M 7.5 95  A 2.5 2.5 0 0 1 10 92.5 L 18 92.5  A 2.5 2.5 0 0 1 20.5 95 L 20.5 103  A 2.5 2.5 0 0 1 18 105.5 L 10 105.5  A 2.5 2.5 0 0 1 7.5 103 L 7.5 95  Z " fill-rule="nonzero" fill="#ffffff" stroke="none" />
  <path d="M 7.5 95  A 2.5 2.5 0 0 1 10 92.5 L 18 92.5  A 2.5 2.5 0 0 1 20.5 95 L 20.5 103  A 2.5 2.5 0 0 1 18 105.5 L 10 105.5  A 2.5 2.5 0 0 1 7.5 103 L 7.5 95  Z " stroke-width="1" stroke="#797979" fill="none" />
</svg>