<?xml version="1.0" encoding="utf-8"?>
<svg version="1.1" xmlns:xlink="http://www.w3.org/1999/xlink" width="14px" height="14px" viewBox="7 180  14 14" xmlns="http://www.w3.org/2000/svg">
  <path d="M 7.5 183  A 2.5 2.5 0 0 1 10 180.5 L 18 180.5  A 2.5 2.5 0 0 1 20.5 183 L 20.5 191  A 2.5 2.5 0 0 1 18 193.5 L 10 193.5  A 2.5 2.5 0 0 1 7.5 191 L 7.5 183  Z " fill-rule="nonzero" fill="#f0f0f0" stroke="none" />
  <path d="M 7.5 183  A 2.5 2.5 0 0 1 10 180.5 L 18 180.5  A 2.5 2.5 0 0 1 20.5 183 L 20.5 191  A 2.5 2.5 0 0 1 18 193.5 L 10 193.5  A 2.5 2.5 0 0 1 7.5 191 L 7.5 183  Z " stroke-width="1" stroke="#797979" fill="none" />
</svg>