<?xml version="1.0" encoding="utf-8"?>
<svg version="1.1" xmlns:xlink="http://www.w3.org/1999/xlink" width="14px" height="14px" viewBox="7 246  14 14" xmlns="http://www.w3.org/2000/svg">
  <path d="M 7.5 249  A 2.5 2.5 0 0 1 10 246.5 L 18 246.5  A 2.5 2.5 0 0 1 20.5 249 L 20.5 257  A 2.5 2.5 0 0 1 18 259.5 L 10 259.5  A 2.5 2.5 0 0 1 7.5 257 L 7.5 249  Z " fill-rule="nonzero" fill="#f0f0f0" stroke="none" />
  <path d="M 7.5 249  A 2.5 2.5 0 0 1 10 246.5 L 18 246.5  A 2.5 2.5 0 0 1 20.5 249 L 20.5 257  A 2.5 2.5 0 0 1 18 259.5 L 10 259.5  A 2.5 2.5 0 0 1 7.5 257 L 7.5 249  Z " stroke-width="1" stroke="#797979" fill="none" />
  <path d="M 10 253  L 13 256  L 18 249  " stroke-width="3" stroke="#797979" fill="none" />
</svg>