<?xml version="1.0" encoding="utf-8"?>
<svg version="1.1" xmlns:xlink="http://www.w3.org/1999/xlink" width="14px" height="14px" viewBox="7 378  14 14" xmlns="http://www.w3.org/2000/svg">
  <path d="M 7.5 381  A 2.5 2.5 0 0 1 10 378.5 L 18 378.5  A 2.5 2.5 0 0 1 20.5 381 L 20.5 389  A 2.5 2.5 0 0 1 18 391.5 L 10 391.5  A 2.5 2.5 0 0 1 7.5 389 L 7.5 381  Z " fill-rule="nonzero" fill="#ffffff" stroke="none" />
  <path d="M 7.5 381  A 2.5 2.5 0 0 1 10 378.5 L 18 378.5  A 2.5 2.5 0 0 1 20.5 381 L 20.5 389  A 2.5 2.5 0 0 1 18 391.5 L 10 391.5  A 2.5 2.5 0 0 1 7.5 389 L 7.5 381  Z " stroke-width="1" stroke="#797979" fill="none" />
</svg>