<?xml version="1.0" encoding="utf-8"?>
<svg version="1.1" xmlns:xlink="http://www.w3.org/1999/xlink" width="14px" height="14px" viewBox="7 356  14 14" xmlns="http://www.w3.org/2000/svg">
  <path d="M 7.5 359  A 2.5 2.5 0 0 1 10 356.5 L 18 356.5  A 2.5 2.5 0 0 1 20.5 359 L 20.5 367  A 2.5 2.5 0 0 1 18 369.5 L 10 369.5  A 2.5 2.5 0 0 1 7.5 367 L 7.5 359  Z " fill-rule="nonzero" fill="#ffffff" stroke="none" />
  <path d="M 7.5 359  A 2.5 2.5 0 0 1 10 356.5 L 18 356.5  A 2.5 2.5 0 0 1 20.5 359 L 20.5 367  A 2.5 2.5 0 0 1 18 369.5 L 10 369.5  A 2.5 2.5 0 0 1 7.5 367 L 7.5 359  Z " stroke-width="1" stroke="#797979" fill="none" />
  <path d="M 10 363  L 13 366  L 18 359  " stroke-width="3" stroke="#797979" fill="none" />
</svg>