<?xml version="1.0" encoding="utf-8"?>
<svg version="1.1" xmlns:xlink="http://www.w3.org/1999/xlink" width="14px" height="14px" viewBox="7 510  14 14" xmlns="http://www.w3.org/2000/svg">
  <path d="M 7.5 513  A 2.5 2.5 0 0 1 10 510.5 L 18 510.5  A 2.5 2.5 0 0 1 20.5 513 L 20.5 521  A 2.5 2.5 0 0 1 18 523.5 L 10 523.5  A 2.5 2.5 0 0 1 7.5 521 L 7.5 513  Z " fill-rule="nonzero" fill="#ffffff" stroke="none" />
  <path d="M 7.5 513  A 2.5 2.5 0 0 1 10 510.5 L 18 510.5  A 2.5 2.5 0 0 1 20.5 513 L 20.5 521  A 2.5 2.5 0 0 1 18 523.5 L 10 523.5  A 2.5 2.5 0 0 1 7.5 521 L 7.5 513  Z " stroke-width="1" stroke="#797979" fill="none" />
  <path d="M 10 517  L 13 520  L 18 513  " stroke-width="3" stroke="#797979" fill="none" />
</svg>