<?xml version="1.0" encoding="utf-8"?>
<svg version="1.1" xmlns:xlink="http://www.w3.org/1999/xlink" width="14px" height="14px" viewBox="7 488  14 14" xmlns="http://www.w3.org/2000/svg">
  <path d="M 7.5 491  A 2.5 2.5 0 0 1 10 488.5 L 18 488.5  A 2.5 2.5 0 0 1 20.5 491 L 20.5 499  A 2.5 2.5 0 0 1 18 501.5 L 10 501.5  A 2.5 2.5 0 0 1 7.5 499 L 7.5 491  Z " fill-rule="nonzero" fill="#f0f0f0" stroke="none" />
  <path d="M 7.5 491  A 2.5 2.5 0 0 1 10 488.5 L 18 488.5  A 2.5 2.5 0 0 1 20.5 491 L 20.5 499  A 2.5 2.5 0 0 1 18 501.5 L 10 501.5  A 2.5 2.5 0 0 1 7.5 499 L 7.5 491  Z " stroke-width="1" stroke="#797979" fill="none" />
</svg>