<?xml version="1.0" encoding="utf-8"?>
<svg version="1.1" xmlns:xlink="http://www.w3.org/1999/xlink" width="14px" height="14px" viewBox="7 158  14 14" xmlns="http://www.w3.org/2000/svg">
  <path d="M 7.5 161  A 2.5 2.5 0 0 1 10 158.5 L 18 158.5  A 2.5 2.5 0 0 1 20.5 161 L 20.5 169  A 2.5 2.5 0 0 1 18 171.5 L 10 171.5  A 2.5 2.5 0 0 1 7.5 169 L 7.5 161  Z " fill-rule="nonzero" fill="#ffffff" stroke="none" />
  <path d="M 7.5 161  A 2.5 2.5 0 0 1 10 158.5 L 18 158.5  A 2.5 2.5 0 0 1 20.5 161 L 20.5 169  A 2.5 2.5 0 0 1 18 171.5 L 10 171.5  A 2.5 2.5 0 0 1 7.5 169 L 7.5 161  Z " stroke-width="1" stroke="#797979" fill="none" />
  <path d="M 10 165  L 13 168  L 18 161  " stroke-width="3" stroke="#797979" fill="none" />
</svg>