<?xml version="1.0" encoding="utf-8"?>
<svg version="1.1" xmlns:xlink="http://www.w3.org/1999/xlink" width="14px" height="14px" viewBox="7 312  14 14" xmlns="http://www.w3.org/2000/svg">
  <path d="M 7.5 315  A 2.5 2.5 0 0 1 10 312.5 L 18 312.5  A 2.5 2.5 0 0 1 20.5 315 L 20.5 323  A 2.5 2.5 0 0 1 18 325.5 L 10 325.5  A 2.5 2.5 0 0 1 7.5 323 L 7.5 315  Z " fill-rule="nonzero" fill="#ffffff" stroke="none" />
  <path d="M 7.5 315  A 2.5 2.5 0 0 1 10 312.5 L 18 312.5  A 2.5 2.5 0 0 1 20.5 315 L 20.5 323  A 2.5 2.5 0 0 1 18 325.5 L 10 325.5  A 2.5 2.5 0 0 1 7.5 323 L 7.5 315  Z " stroke-width="1" stroke="#797979" fill="none" />
</svg>