<?xml version="1.0" encoding="utf-8"?>
<svg version="1.1" xmlns:xlink="http://www.w3.org/1999/xlink" width="14px" height="14px" viewBox="7 334  14 14" xmlns="http://www.w3.org/2000/svg">
  <path d="M 7.5 337  A 2.5 2.5 0 0 1 10 334.5 L 18 334.5  A 2.5 2.5 0 0 1 20.5 337 L 20.5 345  A 2.5 2.5 0 0 1 18 347.5 L 10 347.5  A 2.5 2.5 0 0 1 7.5 345 L 7.5 337  Z " fill-rule="nonzero" fill="#ffffff" stroke="none" />
  <path d="M 7.5 337  A 2.5 2.5 0 0 1 10 334.5 L 18 334.5  A 2.5 2.5 0 0 1 20.5 337 L 20.5 345  A 2.5 2.5 0 0 1 18 347.5 L 10 347.5  A 2.5 2.5 0 0 1 7.5 345 L 7.5 337  Z " stroke-width="1" stroke="#797979" fill="none" />
  <path d="M 10 341  L 13 344  L 18 337  " stroke-width="3" stroke="#797979" fill="none" />
</svg>