<?xml version="1.0" encoding="utf-8"?>
<svg version="1.1" xmlns:xlink="http://www.w3.org/1999/xlink" width="14px" height="14px" viewBox="7 400  14 14" xmlns="http://www.w3.org/2000/svg">
  <path d="M 7.5 403  A 2.5 2.5 0 0 1 10 400.5 L 18 400.5  A 2.5 2.5 0 0 1 20.5 403 L 20.5 411  A 2.5 2.5 0 0 1 18 413.5 L 10 413.5  A 2.5 2.5 0 0 1 7.5 411 L 7.5 403  Z " fill-rule="nonzero" fill="#f0f0f0" stroke="none" />
  <path d="M 7.5 403  A 2.5 2.5 0 0 1 10 400.5 L 18 400.5  A 2.5 2.5 0 0 1 20.5 403 L 20.5 411  A 2.5 2.5 0 0 1 18 413.5 L 10 413.5  A 2.5 2.5 0 0 1 7.5 411 L 7.5 403  Z " stroke-width="1" stroke="#797979" fill="none" />
</svg>