<?xml version="1.0" encoding="utf-8"?>
<svg version="1.1" xmlns:xlink="http://www.w3.org/1999/xlink" width="14px" height="14px" viewBox="7 444  14 14" xmlns="http://www.w3.org/2000/svg">
  <path d="M 7.5 447  A 2.5 2.5 0 0 1 10 444.5 L 18 444.5  A 2.5 2.5 0 0 1 20.5 447 L 20.5 455  A 2.5 2.5 0 0 1 18 457.5 L 10 457.5  A 2.5 2.5 0 0 1 7.5 455 L 7.5 447  Z " fill-rule="nonzero" fill="#f0f0f0" stroke="none" />
  <path d="M 7.5 447  A 2.5 2.5 0 0 1 10 444.5 L 18 444.5  A 2.5 2.5 0 0 1 20.5 447 L 20.5 455  A 2.5 2.5 0 0 1 18 457.5 L 10 457.5  A 2.5 2.5 0 0 1 7.5 455 L 7.5 447  Z " stroke-width="1" stroke="#797979" fill="none" />
</svg>