<?xml version="1.0" encoding="utf-8"?>
<svg version="1.1" xmlns:xlink="http://www.w3.org/1999/xlink" width="14px" height="14px" viewBox="7 70  14 14" xmlns="http://www.w3.org/2000/svg">
  <path d="M 7.5 73  A 2.5 2.5 0 0 1 10 70.5 L 18 70.5  A 2.5 2.5 0 0 1 20.5 73 L 20.5 81  A 2.5 2.5 0 0 1 18 83.5 L 10 83.5  A 2.5 2.5 0 0 1 7.5 81 L 7.5 73  Z " fill-rule="nonzero" fill="#f0f0f0" stroke="none" />
  <path d="M 7.5 73  A 2.5 2.5 0 0 1 10 70.5 L 18 70.5  A 2.5 2.5 0 0 1 20.5 73 L 20.5 81  A 2.5 2.5 0 0 1 18 83.5 L 10 83.5  A 2.5 2.5 0 0 1 7.5 81 L 7.5 73  Z " stroke-width="1" stroke="#797979" fill="none" />
  <path d="M 10 77  L 13 80  L 18 73  " stroke-width="3" stroke="#797979" fill="none" />
</svg>