<?xml version="1.0" encoding="utf-8"?>
<svg version="1.1" xmlns:xlink="http://www.w3.org/1999/xlink" width="14px" height="14px" viewBox="7 532  14 14" xmlns="http://www.w3.org/2000/svg">
  <path d="M 7.5 535  A 2.5 2.5 0 0 1 10 532.5 L 18 532.5  A 2.5 2.5 0 0 1 20.5 535 L 20.5 543  A 2.5 2.5 0 0 1 18 545.5 L 10 545.5  A 2.5 2.5 0 0 1 7.5 543 L 7.5 535  Z " fill-rule="nonzero" fill="#ffffff" stroke="none" />
  <path d="M 7.5 535  A 2.5 2.5 0 0 1 10 532.5 L 18 532.5  A 2.5 2.5 0 0 1 20.5 535 L 20.5 543  A 2.5 2.5 0 0 1 18 545.5 L 10 545.5  A 2.5 2.5 0 0 1 7.5 543 L 7.5 535  Z " stroke-width="1" stroke="#797979" fill="none" />
  <path d="M 10 539  L 13 542  L 18 535  " stroke-width="3" stroke="#797979" fill="none" />
</svg>