<?xml version="1.0" encoding="utf-8"?>
<svg version="1.1" xmlns:xlink="http://www.w3.org/1999/xlink" width="11px" height="11px" xmlns="http://www.w3.org/2000/svg">
  <g transform="matrix(1 0 0 1 -956 -182 )">
    <path d="M 10.940875 1.44008333333333  C 10.9019166666667 1.42816666666667  10.8533333333333 1.42175  10.795125 1.42175  L 7.110125 1.42175  L 7.110125 2.10375  L 8.196375 2.10375  L 8.196375 3.18266666666667  L 7.110125 3.18266666666667  L 7.110125 3.52641666666667  L 8.196375 3.52641666666667  L 8.196375 4.60670833333333  L 7.110125 4.60670833333333  L 7.110125 4.96008333333333  L 8.196375 4.96008333333333  L 8.196375 5.98170833333333  L 7.110125 5.98170833333333  L 7.110125 6.391  L 8.196375 6.391  L 8.196375 7.41491666666667  L 7.110125 7.41491666666667  L 7.110125 7.82420833333334  L 8.196375 7.82420833333334  L 8.196375 8.85408333333334  L 7.110125 8.85408333333334  L 7.110125 9.60529166666667  L 10.795125 9.60529166666667  C 10.8533333333333 9.587875  10.9019166666667 9.519125  10.940875 9.39995833333334  C 10.9798333333333 9.279875  11 9.18225  11 9.10845833333334  L 11 1.54641666666667  C 11 1.48775  10.9798333333333 1.45245833333333  10.940875 1.44008333333333  Z M 10.3170833333333 8.85316666666667  L 8.54929166666667 8.85316666666667  L 8.54929166666667 7.82420833333333  L 10.3170833333333 7.82420833333333  L 10.3170833333333 8.85408333333333  Z M 10.3170833333333 6.39054166666667  L 10.3170833333333 7.41491666666667  L 8.54929166666667 7.41491666666667  L 8.54929166666667 6.39054166666667  L 10.3170833333333 6.39054166666667  Z M 10.3170833333333 5.98125  L 8.54929166666667 5.98125  L 8.54929166666667 4.96420833333333  L 10.3170833333333 4.96420833333333  L 10.3170833333333 5.98216666666667  Z M 10.3170833333333 4.60625  L 8.54929166666667 4.60625  L 8.54929166666667 3.52733333333333  L 10.3170833333333 3.52733333333333  L 10.3170833333333 4.60670833333333  Z M 10.3170833333333 3.18358333333333  L 10.3170833333333 3.17670833333333  L 8.54929166666667 3.17670833333333  L 8.54929166666667 2.10420833333333  L 10.3170833333333 2.10420833333333  L 10.3170833333333 3.18358333333333  Z M 0 1.255375  L 0 1.25170833333333  L 0 9.77716666666667  L 6.49 10.899625  L 6.49 0.100375  L 0 1.255375  Z M 3.84679166666667 7.70091666666667  C 3.82204166666667 7.634  3.705625 7.34983333333333  3.499375 6.84704166666667  C 3.29358333333333 6.34470833333333  3.169375 6.05229166666667  3.13316666666667 5.968875  L 3.12170833333333 5.968875  L 2.4255 7.62575  L 1.49508333333333 7.56295833333333  L 2.59875 5.50045833333333  L 1.588125 3.43795833333333  L 2.536875 3.388  L 3.163875 5.00179166666667  L 3.17625 5.00179166666667  L 3.884375 3.31466666666666  L 4.86475 3.25279166666667  L 3.697375 5.484875  L 4.9005 7.761875  L 3.84679166666667 7.7  Z " fill-rule="nonzero" fill="#217346" stroke="none" transform="matrix(1 0 0 1 956 182 )" />
  </g>
</svg>