<?xml version="1.0" encoding="utf-8"?>
<svg version="1.1" xmlns:xlink="http://www.w3.org/1999/xlink" width="13px" height="13px" xmlns="http://www.w3.org/2000/svg">
  <g transform="matrix(1 0 0 1 -1365 -56 )">
    <path d="M 12.930125 1.70191666666667  C 12.8840833333333 1.68783333333333  12.8266666666667 1.68025  12.757875 1.68025  L 8.402875 1.68025  L 8.402875 2.48625  L 9.686625 2.48625  L 9.686625 3.76133333333333  L 8.402875 3.76133333333333  L 8.402875 4.16758333333333  L 9.686625 4.16758333333333  L 9.686625 5.44429166666667  L 8.402875 5.44429166666667  L 8.402875 5.86191666666667  L 9.686625 5.86191666666667  L 9.686625 7.06929166666667  L 8.402875 7.06929166666667  L 8.402875 7.553  L 9.686625 7.553  L 9.686625 8.76308333333334  L 8.402875 8.76308333333334  L 8.402875 9.24679166666667  L 9.686625 9.24679166666667  L 9.686625 10.4639166666667  L 8.402875 10.4639166666667  L 8.402875 11.3517083333333  L 12.757875 11.3517083333333  C 12.8266666666667 11.331125  12.8840833333333 11.249875  12.930125 11.1090416666667  C 12.9761666666667 10.967125  13 10.85175  13 10.7645416666667  L 13 1.82758333333333  C 13 1.75825  12.9761666666667 1.71654166666667  12.930125 1.70191666666667  Z M 12.1929166666667 10.4639166666667  L 12.1929166666667 10.4628333333333  L 10.1037083333333 10.4628333333333  L 10.1037083333333 9.24679166666667  L 12.1929166666667 9.24679166666667  L 12.1929166666667 10.4639166666667  Z M 12.1929166666667 7.55245833333333  L 12.1929166666667 8.76308333333333  L 10.1037083333333 8.76308333333333  L 10.1037083333333 7.55245833333333  L 12.1929166666667 7.55245833333333  Z M 12.1929166666667 7.06983333333333  L 12.1929166666667 7.06875  L 10.1037083333333 7.06875  L 10.1037083333333 5.86679166666667  L 12.1929166666667 5.86679166666667  L 12.1929166666667 7.06983333333333  Z M 12.1929166666667 5.44375  L 10.1037083333333 5.44375  L 10.1037083333333 4.16866666666667  L 12.1929166666667 4.16866666666667  L 12.1929166666667 5.44429166666667  Z M 12.1929166666667 3.76241666666667  L 12.1929166666667 3.75429166666667  L 10.1037083333333 3.75429166666667  L 10.1037083333333 2.48679166666667  L 12.1929166666667 2.48679166666667  L 12.1929166666667 3.76241666666667  Z M 0 1.483625  L 0 1.47929166666667  L 0 11.5548333333333  L 7.67 12.881375  L 7.67 0.118625  L 0 1.483625  Z M 4.54620833333333 9.1  L 4.54620833333333 9.10108333333333  C 4.51695833333333 9.022  4.379375 8.68616666666667  4.135625 8.09195833333333  C 3.89241666666667 7.49829166666667  3.745625 7.15270833333333  3.70283333333333 7.054125  L 3.68929166666667 7.054125  L 2.8665 9.01225  L 1.76691666666667 8.93804166666667  L 3.07125 6.50054166666667  L 1.876875 4.06304166666667  L 2.998125 4.004  L 3.739125 5.91120833333333  L 3.75375 5.91120833333333  L 4.590625 3.91733333333333  L 5.74925 3.84420833333333  L 4.369625 6.482125  L 5.7915 9.173125  L 4.54620833333333 9.1  Z " fill-rule="nonzero" fill="#217346" stroke="none" transform="matrix(1 0 0 1 1365 56 )" />
  </g>
</svg>