<?xml version="1.0" encoding="utf-8"?>
<svg version="1.1" xmlns:xlink="http://www.w3.org/1999/xlink" width="14px" height="14px" viewBox="7 26  14 14" xmlns="http://www.w3.org/2000/svg">
  <path d="M 7.5 29  A 2.5 2.5 0 0 1 10 26.5 L 18 26.5  A 2.5 2.5 0 0 1 20.5 29 L 20.5 37  A 2.5 2.5 0 0 1 18 39.5 L 10 39.5  A 2.5 2.5 0 0 1 7.5 37 L 7.5 29  Z " fill-rule="nonzero" fill="#f0f0f0" stroke="none" />
  <path d="M 7.5 29  A 2.5 2.5 0 0 1 10 26.5 L 18 26.5  A 2.5 2.5 0 0 1 20.5 29 L 20.5 37  A 2.5 2.5 0 0 1 18 39.5 L 10 39.5  A 2.5 2.5 0 0 1 7.5 37 L 7.5 29  Z " stroke-width="1" stroke="#797979" fill="none" />
  <path d="M 10 33  L 13 36  L 18 29  " stroke-width="3" stroke="#797979" fill="none" />
</svg>