<?xml version="1.0" encoding="utf-8"?>
<svg version="1.1" xmlns:xlink="http://www.w3.org/1999/xlink" width="12px" height="12px" xmlns="http://www.w3.org/2000/svg">
  <g transform="matrix(1 0 0 1 -485 -28 )">
    <path d="M 11.5972450657895 11.5972450657895  C 12.0289884868421 11.1624177631579  12.0289884868421 10.4592927631579  11.5972450657895 10.0275493421053  L 7.56969572368421 6  L 11.5972450657895 1.97245065789474  C 12.0320723684211 1.53762335526316  12.0320723684211 0.837582236842105  11.5972450657895 0.402754934210526  C 11.1624177631579 -0.0320723684210526  10.4623766447368 -0.0320723684210526  10.0275493421053 0.402754934210526  L 6 4.43030427631579  L 1.97245065789474 0.402754934210526  C 1.53762335526316 -0.0320723684210526  0.837582236842105 -0.0320723684210526  0.402754934210526 0.402754934210526  C -0.0320723684210526 0.837582236842105  -0.0320723684210526 1.53762335526316  0.402754934210526 1.97245065789474  L 4.43030427631579 6  L 0.402754934210526 10.0275493421053  C -0.0320723684210526 10.4623766447368  -0.0320723684210526 11.1624177631579  0.402754934210526 11.5972450657895  C 0.837582236842105 12.0320723684211  1.53762335526316 12.0320723684211  1.97245065789474 11.5972450657895  L 6 7.56969572368421  L 10.0275493421053 11.5972450657895  C 10.4623766447368 12.0320723684211  11.1624177631579 12.0320723684211  11.5972450657895 11.5972450657895  Z " fill-rule="nonzero" fill="#333333" stroke="none" transform="matrix(1 0 0 1 485 28 )" />
  </g>
</svg>