<?xml version="1.0" encoding="utf-8"?>
<svg version="1.1" xmlns:xlink="http://www.w3.org/1999/xlink" width="14px" height="14px" viewBox="7 4  14 14" xmlns="http://www.w3.org/2000/svg">
  <path d="M 7.5 7  A 2.5 2.5 0 0 1 10 4.5 L 18 4.5  A 2.5 2.5 0 0 1 20.5 7 L 20.5 15  A 2.5 2.5 0 0 1 18 17.5 L 10 17.5  A 2.5 2.5 0 0 1 7.5 15 L 7.5 7  Z " fill-rule="nonzero" fill="#ffffff" stroke="none" />
  <path d="M 7.5 7  A 2.5 2.5 0 0 1 10 4.5 L 18 4.5  A 2.5 2.5 0 0 1 20.5 7 L 20.5 15  A 2.5 2.5 0 0 1 18 17.5 L 10 17.5  A 2.5 2.5 0 0 1 7.5 15 L 7.5 7  Z " stroke-width="1" stroke="#797979" fill="none" />
</svg>