<?xml version="1.0" encoding="utf-8"?>
<svg version="1.1" xmlns:xlink="http://www.w3.org/1999/xlink" width="14px" height="14px" viewBox="8 6  14 14" xmlns="http://www.w3.org/2000/svg">
  <path d="M 8.5 9  A 2.5 2.5 0 0 1 11 6.5 L 19 6.5  A 2.5 2.5 0 0 1 21.5 9 L 21.5 17  A 2.5 2.5 0 0 1 19 19.5 L 11 19.5  A 2.5 2.5 0 0 1 8.5 17 L 8.5 9  Z " fill-rule="nonzero" fill="#f0f0f0" stroke="none" />
  <path d="M 8.5 9  A 2.5 2.5 0 0 1 11 6.5 L 19 6.5  A 2.5 2.5 0 0 1 21.5 9 L 21.5 17  A 2.5 2.5 0 0 1 19 19.5 L 11 19.5  A 2.5 2.5 0 0 1 8.5 17 L 8.5 9  Z " stroke-width="1" stroke="#797979" fill="none" />
</svg>